<?xml version="1.0" standalone="no"?>
<!DOCTYPE svg PUBLIC "-//W3C//DTD SVG 20010904//EN"
 "http://www.w3.org/TR/2001/REC-SVG-20010904/DTD/svg10.dtd">
<svg version="1.0" xmlns="http://www.w3.org/2000/svg"
 width="700.000000pt" height="700.000000pt" viewBox="0 0 700.000000 700.000000"
 preserveAspectRatio="xMidYMid meet">
<metadata>
Created by potrace 1.14, written by Peter Selinger 2001-2017
</metadata>
<g transform="translate(0.000000,700.000000) scale(0.100000,-0.100000)"
fill="#000000" stroke="none">
<path d="M2339 6919 c-1 -8 -3 -23 -4 -34 -1 -11 -5 -60 -9 -110 -4 -49 -13
-121 -21 -160 -8 -38 -16 -81 -19 -95 -10 -61 -71 -255 -101 -325 -7 -16 -24
-57 -38 -90 -75 -178 -226 -429 -460 -765 -341 -490 -487 -722 -615 -980 -178
-359 -251 -583 -278 -850 -4 -45 -5 -336 0 -375 2 -16 6 -66 10 -110 4 -44 9
-91 11 -105 2 -14 9 -61 15 -105 7 -44 14 -89 16 -100 2 -10 6 -37 9 -60 3
-22 8 -47 10 -55 2 -8 7 -31 10 -50 3 -19 10 -54 16 -78 5 -23 12 -59 15 -80
3 -20 7 -45 10 -54 3 -9 6 -25 8 -35 2 -10 18 -81 34 -158 17 -77 33 -151 36
-165 2 -14 10 -47 16 -75 6 -27 14 -59 16 -70 2 -11 6 -31 9 -45 3 -14 8 -41
11 -60 3 -19 8 -38 10 -41 2 -4 6 -24 10 -45 3 -22 9 -55 14 -74 5 -19 11 -46
14 -60 7 -40 26 -143 30 -166 2 -12 7 -39 10 -60 3 -22 8 -50 11 -64 3 -14 7
-38 9 -55 2 -16 7 -46 10 -65 9 -53 14 -98 21 -170 4 -36 9 -76 11 -90 9 -56
18 -254 18 -400 0 -134 -3 -201 -18 -367 -3 -35 3 -40 21 -22 6 6 20 16 32 23
11 6 80 46 153 88 339 196 737 335 1148 403 19 3 46 7 60 10 31 5 100 15 210
30 89 12 127 17 350 41 25 3 61 7 80 9 19 3 62 7 95 10 33 3 71 8 85 11 14 2
43 6 65 9 103 12 138 17 254 36 68 11 131 22 140 24 9 2 50 11 91 20 41 8 89
20 106 26 17 5 40 11 50 13 42 9 195 61 289 98 272 108 526 271 771 494 378
343 640 664 790 966 25 51 50 101 56 112 54 101 144 424 163 586 4 30 10 82
15 115 9 62 6 641 -3 685 -3 14 -8 62 -12 106 -3 45 -8 93 -10 105 -2 13 -6
51 -10 84 -3 33 -8 71 -9 85 -8 54 -16 116 -20 140 -3 14 -7 48 -11 75 -3 28
-12 88 -20 135 -8 47 -17 102 -19 122 -4 33 -22 135 -31 178 -2 8 -4 31 -5 50
l-1 35 -42 -49 c-125 -145 -294 -297 -438 -394 -76 -51 -107 -69 -206 -123
-29 -16 -60 -33 -70 -39 -67 -38 -365 -157 -543 -217 -554 -187 -762 -258
-832 -286 -49 -19 -89 -32 -89 -29 -2 10 5 90 16 182 37 319 19 659 -51 935
-24 97 -30 115 -74 240 -82 231 -318 609 -525 841 -5 6 -35 40 -65 75 -109
126 -169 188 -411 429 -341 340 -399 395 -400 379z"/>
</g>
</svg>
