<svg xmlns="http://www.w3.org/2000/svg" width="100" height="100" viewBox="5.0 -10.0 100.0 135.0"><path d="M16.146 26.533c-1.292-1.096-3.15-1.861-5.409-1.861h-4.021l-1.716-.489v1.145c0 3.128 3.117 6.209 6.247 6.209h4.05v.694c-1.146.251-3.164 1.129-4.374 2.5-1.451 1.644-1.984 3.833-1.713 6.007l4.668 37.04c.192 1.534 1.574 2.958 3.119 2.958h.031c1.546 0 2.854-1.424 3.047-2.958l4.596-36.906c.272-2.175-.689-4.431-2.14-6.074-1.211-1.371-2.658-2.315-4.946-2.567v-4.391c0-.189.582.266.602.266h4.593c3.13 0 5.103-3.367 5.103-6.542v-.322h-4.595c-3.404-.001-6.271 2.161-7.142 5.291zm-4.899 2.717c-1.475 0-2.731-1.145-3.196-2.287h2.686c.985 0 3.791 0 4.782 2.287h-4.272zm9.856 7.397c1.016 1.15 1.49 2.55 1.299 4.074l-1.25 10.267h-4.709v2.287h4.424l-1.86 14.874h-2.564v2.288h2.279l-.916 7.324c-.05.392-.383.684-.777.684h-.031c-.394 0-.727-.292-.777-.684l-2.059-16.478h2.281v-2.287h-2.567l-1.859-14.874h6.713v-2.288h-7l-.104-1.114c-.191-1.524.283-2.924 1.299-4.074 1.015-1.151 2.478-1.678 4.013-1.678h.15c1.535.002 2.998.529 4.015 1.679zm1.677-10.831h-3.761c.922-1.145 2.492-2.287 4.27-2.287h2.695c-.458 1.143-1.722 2.287-3.204 2.287zM46.188 63.828v4.548l7.842-4.03c2.014-1.073 3.599-3.694 3.599-6.676v-4.55l-7.845 4.032c-2.011 1.073-3.596 3.693-3.596 6.676zm4.674-4.657l4.479-2.236v.735c0 2.082-1.147 3.997-2.386 4.655l-4.479 2.237v-.734c.001-2.083 1.149-3.998 2.386-4.657zM41.446 57.152l-7.845-4.032v4.55c0 2.981 1.586 5.603 3.599 6.676l7.843 4.03v-4.548c0-2.983-1.585-5.603-3.597-6.676zm1.31 7.41l-4.479-2.237c-1.237-.658-2.386-2.573-2.386-4.655v-.735l4.478 2.236c1.236.659 2.387 2.574 2.387 4.657v.734zM46.188 75.269v4.549l7.842-4.031c2.014-1.072 3.599-3.692 3.599-6.676v-4.548l-7.845 4.03c-2.011 1.072-3.596 3.694-3.596 6.676zm4.674-4.656l4.479-2.237v.734c0 2.082-1.147 3.998-2.386 4.657l-4.479 2.235v-.734c.001-2.081 1.149-3.997 2.386-4.655zM41.446 68.593l-7.845-4.03v4.548c0 2.983 1.586 5.604 3.599 6.676l7.843 4.03v-4.548c0-2.984-1.585-5.604-3.597-6.676zm1.31 7.41l-4.479-2.235c-1.237-.659-2.386-2.575-2.386-4.657v-.734l4.478 2.235c1.236.66 2.387 2.575 2.387 4.657v.734zM46.188 52.388v4.547l7.842-4.031c2.014-1.072 3.599-3.693 3.599-6.676v-4.548l-7.845 4.032c-2.011 1.072-3.596 3.692-3.596 6.676zm4.674-4.658l4.479-2.237v.735c0 2.084-1.147 3.998-2.386 4.657l-4.479 2.237v-.734c.001-2.085 1.149-3.998 2.386-4.658zM41.446 45.71l-7.845-4.03v4.548c0 2.983 1.586 5.604 3.599 6.676l7.843 4.031v-4.547c0-2.984-1.585-5.604-3.597-6.678zm1.31 7.412l-4.479-2.237c-1.237-.66-2.386-2.575-2.386-4.657v-.735l4.478 2.237c1.236.66 2.387 2.573 2.387 4.658v.734zM46.188 40.945v4.55l7.842-4.032c2.014-1.072 3.599-3.692 3.599-6.675v-4.548l-7.845 4.03c-2.011 1.072-3.596 3.694-3.596 6.675zm4.674-4.655l4.479-2.237v.735c0 2.082-1.147 3.998-2.386 4.657l-4.479 2.235v-.735c.001-2.082 1.149-3.997 2.386-4.655zM41.446 34.27l-7.845-4.03v4.548c0 2.983 1.586 5.603 3.599 6.675l7.843 4.03v-4.548c0-2.983-1.585-5.603-3.597-6.675zm1.31 7.41l-4.479-2.235c-1.237-.66-2.386-2.575-2.386-4.657v-.735l4.478 2.235c1.236.66 2.387 2.575 2.387 4.657v.735zM89.666 43.55v-4.204l-6.494 3.621c-1.798.961-2.661 3.291-2.661 5.938v4.205l6.494-3.624c1.798-.957 2.661-3.288 2.661-5.936zm-3.737 3.917l-3.129 1.828v-.391c0-1.757.419-3.368 1.447-3.917l3.13-1.829v.391c0 1.76-.419 3.369-1.448 3.918zM48.891 23.509l-3.391-4.244-3.389 4.244c-1.817 2.276-1.817 5.844 0 8.12l3.389 4.246 3.391-4.246c1.817-2.276 1.817-5.844 0-8.12zm-1.788 6.693l-1.603 2.006-1.603-2.006c-1.138-1.427-1.138-3.838 0-5.264l1.603-2.006 1.603 2.006c1.138 1.426 1.138 3.836 0 5.264zM85.554 52.992c-1.312 0-2.586.268-3.786.794-1.145.504-2.345.554-3.28.116-2.407-1.127-5.44-1.202-7.91-.192-3.524 1.442-6.082 5.09-6.082 9.075v1.946c0 8.239 6.451 15.293 14.442 15.713.272.015.639.29.907.29h.05c4.002 0 7.795-1.826 10.637-4.654 2.843-2.835 4.422-6.732 4.422-10.734 0-1.166.016-1.415.024-1.585.009-.171.022-.365.022-1.283 0-5.211-4.237-9.486-9.446-9.486zm7.147 10.57c-.012.188-.024.384-.024 1.649 0 3.388-1.329 6.576-3.736 8.978-2.408 2.4-5.604 3.721-8.999 3.721h-.003c-.226 0-.647-.006-.879-.017-6.778-.359-12.278-6.14-12.278-13.162v-1.946c0-3.067 1.988-5.862 4.662-6.955.888-.364 1.916-.549 2.864-.549 1.069 0 2.191.239 3.164.694 1.532.714 3.451.674 5.193-.095.906-.396 1.882-.6 2.876-.6 3.949 0 7.17 3.213 7.17 7.161 0 .828-.003.969-.01 1.121z"/><text y="117.5" font-size="5" font-weight="bold" font-family="Helvetica Neue, Helvetica, Arial-Unicode, Arial, Sans-serif">Created by Greg Beck</text><text y="122.5" font-size="5" font-weight="bold" font-family="Helvetica Neue, Helvetica, Arial-Unicode, Arial, Sans-serif">from the Noun Project</text></svg>