<svg xmlns="http://www.w3.org/2000/svg" width="100" height="100" viewBox="5.0 -10.0 100 135.0"><path style="text-indent:0;text-align:start;line-height:normal;text-transform:none;block-progression:tb;-inkscape-font-specification:Sans" d="M82.81 968.222c-5.089.584-10.036 2.848-13.938 6.75-3.902 3.901-6.166 8.841-6.75 13.938a2.5 2.5 0 0 0-.031.344 2.5 2.5 0 0 0-.375.969c-.483 2.732-2.506 5.685-5.813 8.781-3.307 3.096-7.793 6.302-12.688 9.656-9.788 6.709-21.228 14.017-28.344 23.875a2.507 2.507 0 1 0 4.063 2.938c3.437-4.761 8.283-9.032 13.563-13.063 3.92 2.915 8.779 4.656 14.031 4.656 5.514 0 10.616-1.916 14.625-5.094a2.5 2.5 0 0 0 0-3.906c-4.012-3.186-9.107-5.094-14.625-5.094l-.781.031.313-.219c1.863-1.277 3.659-2.517 5.406-3.781a2.5 2.5 0 0 0 .281.25c4.015 3.182 9.111 5.093 14.625 5.094 5.514 0 10.616-1.916 14.625-5.094a2.5 2.5 0 0 0 0-3.938c-4.012-3.186-9.107-5.094-14.625-5.094-1.781 0-3.517.249-5.188.625 2.688-2.849 4.668-5.932 5.375-9.406 4.505-.849 8.837-3.025 12.313-6.5 3.899-3.899 6.131-8.856 6.719-13.938a2.5 2.5 0 0 0-2.781-2.781zm-29.406 2.063a2.5 2.5 0 0 0-1.406.5c-4.116 3.05-7.259 7.452-8.688 12.781-1.428 5.33-.917 10.762 1.125 15.469a2.5 2.5 0 0 0 3.781 1.031c4.113-3.054 7.292-7.518 8.719-12.844 1.427-5.326.876-10.743-1.156-15.438a2.5 2.5 0 0 0-2.375-1.5zm26.406 3.719c-.869 2.705-2.318 5.255-4.469 7.406-2.152 2.152-4.725 3.625-7.438 4.5.874-2.708 2.376-5.251 4.531-7.406 2.155-2.155 4.673-3.633 7.375-4.5zm-27.531 3.281c.6 2.776.631 5.719-.156 8.656-.782 2.92-2.264 5.456-4.156 7.563-.591-2.773-.63-5.691.156-8.625.787-2.936 2.257-5.495 4.156-7.594zm-16.063 5.469a2.5 2.5 0 0 0-1.156.469c-4.116 3.05-7.291 7.483-8.719 12.813-1.428 5.33-.886 10.762 1.156 15.469a2.5 2.5 0 0 0 3.781 1c4.113-3.054 7.292-7.486 8.719-12.812 1.427-5.326.876-10.743-1.156-15.438a2.5 2.5 0 0 0-2.625-1.5zm-.875 6.969c.601 2.778.6 5.717-.188 8.656-.785 2.929-2.254 5.515-4.156 7.625-.599-2.784-.602-5.741.188-8.687.79-2.948 2.246-5.491 4.156-7.594zm31.031 15.5c3.031 0 5.862.779 8.375 2.063-2.516 1.284-5.352 2.063-8.375 2.063-3.024 0-5.85-.779-8.375-2.063 2.522-1.283 5.344-2.063 8.375-2.063zm-19.844 12.75c3.04 0 5.888.741 8.406 2.031-2.524 1.295-5.369 2.063-8.406 2.063-3.037 0-5.873-.768-8.406-2.063 2.528-1.291 5.367-2.031 8.406-2.031z" color="#000" overflow="visible" enable-background="accumulate" font-family="Sans" transform="translate(0 -952.362)"/><text y="117.5" font-size="5" font-weight="bold" font-family="Helvetica Neue, Helvetica, Arial-Unicode, Arial, Sans-serif">Created by baabullah hasan</text><text y="122.5" font-size="5" font-weight="bold" font-family="Helvetica Neue, Helvetica, Arial-Unicode, Arial, Sans-serif">from the Noun Project</text></svg>