<svg width="414" height="896" xmlns="http://www.w3.org/2000/svg" xmlns:xlink="http://www.w3.org/1999/xlink"><defs><path id="a" d="M0 0h414v896H0z"/><path id="c" d="M0 0h414v896H0z"/></defs><g fill="none" fill-rule="evenodd"><path fill="#2B2B2B" style="mix-blend-mode:multiply" d="M0 0h414v896H0z"/><g style="mix-blend-mode:multiply"><mask id="b" fill="#fff"><use xlink:href="#a"/></mask><g mask="url(#b)"><path d="M501.431 733.542c158.14-140.683 158.14-237.403 118.605-470.41-96.64 123.098-241.603 101.116-390.957 202.232C116.088 541.862 110.474 781.902-12.524 905c188.89-127.494 355.815-30.774 513.955-171.458z" fill="#2B2B2B" opacity=".498" style="mix-blend-mode:multiply"/><path d="M324.116 455.306c41.7-207.603-16.46-284.847-188.148-447.123C132.81 164.701 3.82 234.457-54.656 405.17-98.896 534.318 11.268 732.607-12.941 905c122.998-118.702 295.357-242.09 337.057-449.694z" fill="#FFF" opacity=".099" style="mix-blend-mode:overlay"/></g><g mask="url(#b)"><path d="M501.431 733.542c158.14-140.683 158.14-237.403 118.605-470.41-96.64 123.098-241.603 101.116-390.957 202.232C116.088 541.862 110.474 781.902-12.524 905c188.89-127.494 355.815-30.774 513.955-171.458z" fill="#8DB663" opacity=".504" style="mix-blend-mode:multiply"/><path d="M324.116 455.306c41.7-207.603-16.46-284.847-188.148-447.123C132.81 164.701 3.82 234.457-54.656 405.17-98.896 534.318 11.268 732.607-12.941 905c122.998-118.702 295.357-242.09 337.057-449.694z" fill="#A3D56F" opacity=".499" style="mix-blend-mode:multiply"/></g></g><mask id="d" fill="#fff"><use xlink:href="#c"/></mask><g mask="url(#d)"><path d="M501.431 733.542c158.14-140.683 158.14-237.403 118.605-470.41-96.64 123.098-241.603 101.116-390.957 202.232C116.088 541.862 110.474 781.902-12.524 905c188.89-127.494 355.815-30.774 513.955-171.458z" fill="#2B2B2B" opacity=".498" style="mix-blend-mode:multiply"/><path d="M324.116 455.306c41.7-207.603-16.46-284.847-188.148-447.123C132.81 164.701 3.82 234.457-54.656 405.17-98.896 534.318 11.268 732.607-12.941 905c122.998-118.702 295.357-242.09 337.057-449.694z" fill="#FFF" opacity=".099" style="mix-blend-mode:overlay"/></g></g></svg>