<?xml version="1.0" encoding="UTF-8"?>
<svg width="40px" height="40px" viewBox="0 0 40 40" version="1.1" xmlns="http://www.w3.org/2000/svg" xmlns:xlink="http://www.w3.org/1999/xlink">
    <title>leaves-icon</title>
    <defs>
        <rect id="path-1" x="0" y="0" width="40" height="40"></rect>
    </defs>
    <g id="leaves-icon" stroke="none" stroke-width="1" fill="none" fill-rule="evenodd">
        <mask id="mask-2" fill="white">
            <use xlink:href="#path-1"></use>
        </mask>
        <g id="Mask"></g>
        <g id="leaves" mask="url(#mask-2)">
            <g transform="translate(-9.773308, -0.200000)">
                <path d="M39.2003616,32.4637681 C46.1568834,26.2801932 46.1568834,22.0289855 44.4177529,11.7874396 C40.1665452,17.1980676 33.7897336,16.2318841 27.2196853,20.6763285 C22.2492373,24.0386904 22.002294,34.589372 16.591666,40 C24.9008447,34.3961353 32.2438399,38.647343 39.2003616,32.4637681 Z" id="right" fill="#8DB663" style="mix-blend-mode: multiply;"></path>
                <path d="M29.0109226,26.9068912 C35.9674443,20.7233163 35.9674443,16.4721086 34.2283139,6.23056267 C29.9771062,11.6411907 23.6002946,10.6750071 17.0302463,15.1194516 C12.0597982,18.4818135 10.6848408,28.3588093 5.27421282,33.7694373 C12.735237,32.8588406 22.0544008,33.0904661 29.0109226,26.9068912 Z" id="left" fill="#A3D56F" style="mix-blend-mode: multiply;" transform="translate(20.234355, 20.000000) rotate(-37.000000) translate(-20.234355, -20.000000) "></path>
            </g>
        </g>
    </g>
</svg>