<?xml version="1.0" encoding="UTF-8"?>
<svg width="414px" height="896px" viewBox="0 0 414 896" version="1.1" xmlns="http://www.w3.org/2000/svg" xmlns:xlink="http://www.w3.org/1999/xlink">
    <title>leaves-bg</title>
    <defs>
        <rect id="path-1" x="0" y="0" width="414" height="896"></rect>
        <rect id="path-3" x="0" y="0" width="414" height="896"></rect>
    </defs>
    <g id="leaves-bg" stroke="none" stroke-width="1" fill="none" fill-rule="evenodd">
        <rect id="bg" fill="#2B2B2B" style="mix-blend-mode: multiply;" x="0" y="0" width="414" height="896"></rect>
        <g id="leaves-bottom" style="mix-blend-mode: multiply;">
            <mask id="mask-2" fill="white">
                <use xlink:href="#path-1"></use>
            </mask>
            <g id="Mask"></g>
            <g id="grey-leaves" mask="url(#mask-2)">
                <g transform="translate(-390.046497, -4.993039)">
                    <path d="M891.477682,738.535164 C1049.6176,597.851779 1049.6176,501.131952 1010.08262,268.125096 C913.441559,391.223057 768.479969,369.241278 619.125603,470.357461 C506.13433,546.855032 500.520665,786.895077 377.522951,909.993039 C566.412297,782.498722 733.337765,879.218549 891.477682,738.535164 Z" id="right" fill="#2B2B2B" opacity="0.497558594" style="mix-blend-mode: multiply;"></path>
                    <path d="M659.852735,612.007368 C818.0944,471.303529 818.132258,374.61223 778.676811,141.689587 C681.95904,264.789098 536.963262,242.87059 387.525228,344.015455 C274.470659,420.534725 243.117103,645.193616 120.034899,768.303452 C289.70165,747.526006 501.611071,752.711207 659.852735,612.007368 Z" id="left" fill="#FFFFFF" opacity="0.098895845" style="mix-blend-mode: overlay;" transform="translate(460.303037, 454.996520) rotate(-37.000000) translate(-460.303037, -454.996520) "></path>
                </g>
            </g>
            <g id="green-leaves" mask="url(#mask-2)">
                <g transform="translate(-390.046497, -4.993039)">
                    <path d="M891.477682,738.535164 C1049.6176,597.851779 1049.6176,501.131952 1010.08262,268.125096 C913.441559,391.223057 768.479969,369.241278 619.125603,470.357461 C506.13433,546.855032 500.520665,786.895077 377.522951,909.993039 C566.412297,782.498722 733.337765,879.218549 891.477682,738.535164 Z" id="right" fill="#8DB663" opacity="0.504003616" style="mix-blend-mode: multiply;"></path>
                    <path d="M659.852735,612.007368 C818.0944,471.303529 818.132258,374.61223 778.676811,141.689587 C681.95904,264.789098 536.963262,242.87059 387.525228,344.015455 C274.470659,420.534725 243.117103,645.193616 120.034899,768.303452 C289.70165,747.526006 501.611071,752.711207 659.852735,612.007368 Z" id="left" fill="#A3D56F" opacity="0.4994129" style="mix-blend-mode: multiply;" transform="translate(460.303037, 454.996520) rotate(-37.000000) translate(-460.303037, -454.996520) "></path>
                </g>
            </g>
        </g>
        <g id="leaves-top">
            <mask id="mask-4" fill="white">
                <use xlink:href="#path-3"></use>
            </mask>
            <use id="Mask" fill="#2B2B2B" opacity="0" xlink:href="#path-3"></use>
            <g id="leaves" mask="url(#mask-4)">
                <g transform="translate(-390.046497, -4.993039)">
                    <path d="M891.477682,738.535164 C1049.6176,597.851779 1049.6176,501.131952 1010.08262,268.125096 C913.441559,391.223057 768.479969,369.241278 619.125603,470.357461 C506.13433,546.855032 500.520665,786.895077 377.522951,909.993039 C566.412297,782.498722 733.337765,879.218549 891.477682,738.535164 Z" id="right" fill="#2B2B2B" opacity="0.497558594" style="mix-blend-mode: multiply;"></path>
                    <path d="M659.852735,612.007368 C818.0944,471.303529 818.132258,374.61223 778.676811,141.689587 C681.95904,264.789098 536.963262,242.87059 387.525228,344.015455 C274.470659,420.534725 243.117103,645.193616 120.034899,768.303452 C289.70165,747.526006 501.611071,752.711207 659.852735,612.007368 Z" id="left" fill="#FFFFFF" opacity="0.098895845" style="mix-blend-mode: overlay;" transform="translate(460.303037, 454.996520) rotate(-37.000000) translate(-460.303037, -454.996520) "></path>
                </g>
            </g>
        </g>
    </g>
</svg>