<svg xmlns="http://www.w3.org/2000/svg" width="100" height="100" viewBox="5.0 -10.0 100.0 135.0"><path d="M95.918 25.51h-48.98c-4.082 0-4.082 0-4.082 4.082v4.082c0 4.082 0 4.082 4.082 4.082h48.98c4.082 0 4.082 0 4.082-4.082v-4.082c0-4.082 0-4.082-4.082-4.082zm0 36.735h-48.98c-4.082 0-4.082 0-4.082 4.082v4.082c0 4.082 0 4.082 4.082 4.082h48.98c4.082 0 4.082 0 4.082-4.082v-4.082c0-4.082 0-4.082-4.082-4.082zm0 24.49h-48.98c-4.082 0-4.082 0-4.082 4.082v4.082c0 4.082 0 4.082 4.082 4.082h48.98c4.082 0 4.082 0 4.082-4.082v-4.082c0-4.082 0-4.082-4.082-4.082zm0-85.715h-48.98c-4.082 0-4.082 0-4.082 4.082v4.082c0 4.082 0 4.082 4.082 4.082h48.98c4.082 0 4.082 0 4.082-4.082v-4.082c0-4.082 0-4.082-4.082-4.082zm-73.469 0h-8.163l-14.286 36.735h10.204l8.163-24.49 8.163 24.49h10.204l-14.285-36.735zm4.082 22.449h-16.327l-2.041 8.163h20.408l-2.04-8.163zm6.122 38.776h-30.612v10.204h16.327l-16.327 20v6.531h30.612v-10.204h-15.51l15.51-20v-6.531z"/><text y="117.5" font-size="5" font-weight="bold" font-family="Helvetica Neue, Helvetica, Arial-Unicode, Arial, Sans-serif">Created by Thomas Helbig</text><text y="122.5" font-size="5" font-weight="bold" font-family="Helvetica Neue, Helvetica, Arial-Unicode, Arial, Sans-serif">from the Noun Project</text></svg>