<svg xmlns="http://www.w3.org/2000/svg" version="1" width="50" height="50" viewBox="2.5 -5.0 50.0 67.5"><path d="M28.953 12.623s-3.641-8.842 5.35-11.591c2.451 8.322-3.791 10.774-5.35 11.591zM29.691 34.727s4.375-1.477 5.418 2.943c-4.088.92-5.074-2.166-5.418-2.943zM16.695 22.716s-9.272-1.514-6.936-10.451c8.225 2.24 7.058 8.724 6.936 10.451zM32.41 28.414c-4.193.706-6.717 3.079-6.719 3.08.77-3.909 1.76-6.55 2.206-7.626 3.055-.57 10.352-2.229 10.271-12.682-10.406.188-11.143 8.994-11.102 11.904-1.237 1.697-2.196 3.707-2.94 5.83-1.283-3.52-1.49-7-1.508-8.667 1.955-1.983 6.456-6.933 1.053-14.563-6.805 4.924-4.248 11.207-2.566 13.9-.641 8.817 2.219 12.41 2.219 12.41h.002c-.266 1-.492 1.779-.686 2.774-.004-.005-2.012-3.212-5.094-5.116-1.158-2.195-4.041-6.902-11.471-4.588 2.193 6.79 7.732 6.328 10.385 5.678.002.002 4.678 2.908 5.686 6.851-.699 5.218-.551 9.435-.551 9.435 0 1.934 3.195 2.151 3.195-.449-.318-4.706-.063-8.839.424-12.265 2.44-3.273 7.975-4.317 7.975-4.317 6.025 4.43 11.188-1.902 11.188-1.902-1.391-.936-6.172-4.957-11.967.313z"/><text y="58.75" font-size="2.5" font-weight="bold" font-family="Helvetica Neue, Helvetica, Arial-Unicode, Arial, Sans-serif">Created by Mister Pixel</text><text y="61.25" font-size="2.5" font-weight="bold" font-family="Helvetica Neue, Helvetica, Arial-Unicode, Arial, Sans-serif">from the Noun Project</text></svg>